<?xml version="1.0" encoding="UTF-8"?>
<svg version="1.1" viewBox="0 0 2048 1228" width="600" height="360" xmlns="http://www.w3.org/2000/svg">
<path transform="translate(0)" d="m0 0h2048v1228h-2048z" fill="#FCFCFC"/>
<path transform="translate(1399,478)" d="m0 0h219l-2 5-13 18-13 19-16 23-11 16-3 2h-16l-5-4-7-11-14-19-11-14-8-9 4 7 7 9 16 24 11 19 10 22 8 22 7 27 4 31v25l-3 25-6 25-8 23-8 16-9 16-11 16-8 10-12 13-18 18-11 9-13 10-15 10-20 12-23 12-20 9-25 10-31 10-44 11-28 5-36 5-32 3-18 1h-66l-50-4-39-5-36-6-42-9-31-8-30-9-32-11-34-13-26-11-22-10 3-1 36 13 30 10 30 8 39 8 31 5 43 5 32 2h73l41-3 33-4 41-7 43-10 24-7 32-11 32-13 20-9 22-12 21-12 22-15 13-10 11-9 7-6-34-1-26-3-20-5-16-6-17-8-14-9-12-9-13-12-9-10-12-18-8-16-5-12-4-13-3-15-1-8v-34l4-23 6-18 8-17 12-18 13-15 10-9 17-12 23-12 24-8 20-4z" fill="#176FBA"/>
<path transform="translate(932,310)" d="m0 0h40l39 2 48 5 40 6 35 7 52 13 29 9 38 13 26 10 21 9 22 10 7 4-2 1-36-14-36-12-44-11-38-7-46-6-39-3h-80l-49 4-31 4-34 6-42 10-31 9-28 10-27 11-29 14-19 10-20 12-19 13-12 9-10 8-12 10-1 2h201l-3 6-16 23-11 16-14 20-11 16-2 2-160 1-17 4-12 5-11 7-10 9-9 13-6 13-3 11v25l4 15 7 14 8 10 8 7 10 6 11 5 16 4 8 1h116v-43l-145-1 2-5 14-18 8-11 24-32 4-5h182v197l-1 1h-203l-22-2-5-2-9-11-7-7-14-19-11-16-12-20-12-23-11-28-6-21-5-30-1-12v-18l2-22 5-25 6-20 9-21 9-17 13-19 5-7 56-1 1-43 36-1-1-31 18-10 21-10 25-10 36-12 22-6 26-6 39-7 34-4 25-2z" fill="#176EB9"/>
<path transform="translate(974,478)" d="m0 0h241l-2 5-12 18-16 23-11 16-13 19-3 2-187 1-9 3-5 5-2 4v15l4 8 8 4 9 2 160 1 16 2 19 5 14 6 13 9 10 10 7 11 5 13 3 14 1 10v13l-2 17-4 17-6 15-10 14-7 7-13 9-14 7-15 5-20 4-23 2h-251l1-4 14-20 11-16 14-20 11-16 3-5 2-1 200-1 11-2 6-4 4-6 1-4v-12l-4-8-5-4-5-2-7-1-156-1-22-3-18-6-16-8-10-8-9-9-8-13-6-16-3-18v-18l2-15 5-18 8-15 9-11 12-10 14-8 15-6 22-5z" fill="#1C1D1E"/>
<path transform="translate(1399,478)" d="m0 0h219l-2 5-13 18-13 19-16 23-11 16-3 2h-16l-5-4-7-11-14-19-11-14-13-15-9-10-3-2 11 16 4 6 11 23 5 10 5 15v4l-110 1-17 3-15 5-11 6-10 8-8 9-8 13-5 15-1 6v21l3 14 5 12 6 9 9 10 10 7 15 7 10 3 15 2 97 1-1 5-7 13-10 15-13 16-22 24-7 7-2 1h-49l-19-3-21-6-21-9-16-9-16-12-13-12-9-10-12-18-8-16-5-12-4-13-3-15-1-8v-34l4-23 6-18 8-17 12-18 13-15 10-9 17-12 23-12 24-8 20-4z" fill="#1C1C1D"/>
<path transform="translate(655,596)" d="m0 0h182v197l-1 1h-203l-22-2-5-2-8-10-6-11-13-23-6-12-8-24-5-22-2-13-1-13v-22h1l5 21 5 12 6 9 9 10 10 7 15 7 16 4 8 1h116v-43l-145-1 2-5 14-18 8-11 24-32z" fill="#1C1D1E"/>
<path transform="translate(643,478)" d="m0 0h202l-3 6-16 23-11 16-14 20-11 16-2 2-160 1-17 4-12 5-11 7-10 9-9 13-6 11h-1l1-9 6-20 7-16 8-16 11-18 10-14 12-14 9-10 15-15z" fill="#1C1D1E"/>
<path transform="translate(1401,561)" d="m0 0h118l4 13 3 16v6l-98 1-13 17-12 16-14 19-10 13-2 4 144 1-3 12-6 17-6 14-2 2h-98l-15-2-15-5-15-8-12-11-8-11-5-11-3-10-1-7v-21l4-16 7-14 9-11 10-9 14-8 15-5z" fill="#FDFDFD"/>
<path transform="translate(1428,596)" d="m0 0h98l1 4v38l-4 25-1 3-3 1h-142v-4l9-11 13-18 10-13 14-19z" fill="#1C1D1E"/>
<path transform="translate(475,593)" d="m0 0h2l6 24 10 30 11 24 11 20 14 21 12 16 9 10 7 8 23 23 11 9 7 6 6 5-4 1-21-6-21-9-16-9-12-9-11-9-7-7-9-11-10-14-8-15-8-21-4-17-2-13v-32l3-21z" fill="#1C1F21"/>
<path transform="translate(1565,596)" d="m0 0h44l1 1v123l-2-1-6-29-10-32-11-27-12-25-4-7z" fill="#1C2228"/>
<path transform="translate(607,357)" d="m0 0h39v38h-39z" fill="#1C1E20"/>
<path transform="translate(580,411)" d="m0 0h30v28l-1 1h-29z" fill="#1C2228"/>
<path transform="translate(549,371)" d="m0 0h24v24h-24z" fill="#1C1F23"/>
<path transform="translate(526,310)" d="m0 0h22l1 1v23l-1 1h-22z" fill="#1C2127"/>
<path transform="translate(503,395)" d="m0 0h23v22l-1 1h-19l-3-1z" fill="#1C252E"/>
</svg>
